<?xml version="1.0" encoding="UTF-8"?>
<svg id="freepik_stories-finding-brilliant-ideas" data-name="freepik stories-finding-brilliant-ideas" xmlns="http://www.w3.org/2000/svg" xmlns:svgjs="http://svgjs.com/svgjs" version="1.1" viewBox="0 0 500 500">
  <defs>
    <style>
      .cls-1 {
        fill: #a6a6a6;
      }

      .cls-1, .cls-2, .cls-3, .cls-4, .cls-5 {
        stroke-width: 0px;
      }

      .cls-2 {
        fill: #a9a6ff;
      }

      .cls-3 {
        fill: #263238;
      }

      .cls-4 {
        fill: #c7c7c7;
      }

      .cls-6 {
        opacity: .5;
      }

      .cls-7 {
        opacity: .7;
      }

      .cls-5 {
        fill: #fff;
      }
    </style>
  </defs>
  <g id="freepik--light-bulb--inject-33">
    <path id="ele6dahlss3fd" class="cls-3" d="M248.2,44.3c-1.8-12.7-2-25.5-.7-38.2,1.8,12.7,2,25.5.7,38.2Z"/>
    <path id="elxtm41y3tdya" class="cls-3" d="M161,68.6c-7.9-10.1-14.5-21.1-19.7-32.7,7.9,10.1,14.5,21.1,19.7,32.7Z"/>
    <path id="eljrdk9bmm28" class="cls-3" d="M97.6,133.3c-11.9-4.8-23.1-11-33.4-18.5,11.9,4.8,23.1,11,33.4,18.5Z"/>
    <path id="elbw23jbh8ttu" class="cls-3" d="M75.1,221c-12.7,1.8-25.5,2-38.2.7,12.7-1.8,25.5-2,38.2-.7Z"/>
    <path id="elq5cm2pbw7a" class="cls-3" d="M99.4,308.2c-10.1,7.9-21.1,14.5-32.7,19.7,10.1-7.9,21.1-14.5,32.7-19.7Z"/>
    <path id="el57hd7dn4sz9" class="cls-3" d="M402.4,305.1c11.9,4.8,23.1,11,33.4,18.5-11.8-4.8-23.1-11-33.4-18.5Z"/>
    <path id="el09bv5rj69b9q" class="cls-3" d="M424.9,217.4c12.7-1.8,25.5-2,38.2-.7-12.7,1.8-25.5,2-38.2.7Z"/>
    <path id="eldbffw247h8v" class="cls-3" d="M400.6,130.2c10.1-7.9,21.1-14.5,32.7-19.7-10.1,7.9-21.1,14.5-32.7,19.7Z"/>
    <path id="elga05tbawixq" class="cls-3" d="M335.9,66.8c4.8-11.9,11-23.1,18.5-33.4-4.8,11.9-11,23.1-18.5,33.4Z"/>
    <g id="elf2gzeg43t2g">
      <g id="elabq8tohrfvq" class="cls-6">
        <path id="el3pfl1m2jr7" class="cls-2" d="M398.5,228.1c-7.4,92.2-84.1,120-84.1,120-5.6,14-13,49.6-13,49.6h-102.5s-7.4-35.6-13-49.6c0,0-76.8-27.8-84.1-120-5.1-64,40.5-158.7,147.9-158.7h1.1c107.1,0,152.8,94.7,147.7,158.7Z"/>
      </g>
    </g>
    <g id="elkancl33x5ya">
      <g id="elsbeg9s4xxy" class="cls-7">
        <path id="eldr9x54uxcw" class="cls-2" d="M385.8,228.6c-6.8,84.3-77,109.7-77,109.7-5.2,12.8-11.9,59.4-11.9,59.4h-93.9s-6.8-46.6-11.9-59.4c0,0-70.2-25.4-77-109.7-4.7-58.6,37-145.2,135.2-145.2h1c98.3,0,140,86.6,135.3,145.2Z"/>
      </g>
    </g>
    <path id="el7i4axtl1ajl" class="cls-3" d="M250,298.5c-9.1,0-17.6-8.5-23.5-19.4-2.1,2.8-5.2,4.5-8.7,4.8-15.1,0-21.2-31.2-21.4-32.5l2.3-.4c0,.3,6,30.7,19.2,30.7h0c2.4,0,5-1.7,7.5-4.8-4.6-8.9-7.1-18.7-7.5-28.7,0-8.7,3.3-13.6,8.9-13.6h0c3.4-.1,6.6,1.7,8.2,4.7,4.5,7.9,1.2,24.3-4.8,34.6-.7,1.2-1.4,2.3-2.3,3.3,5.6,10.7,13.5,19.1,21.9,19.1h0c7.7,0,14.5-7.1,19.3-16.5-6-6.5-9.4-17-9.4-27.1s4.2-18.2,10.9-18.2,8.5,5.5,8.5,14.9c-.4,10.4-2.9,20.6-7.3,30,2.8,2.7,6.5,4.3,10.4,4.3h0c9.4,0,17.6-22.3,20-30.9l2.3.6c-.4,1.3-9.1,32.5-22.2,32.5h0c-4.2,0-8.3-1.7-11.4-4.5-5.1,9.6-12.2,17.1-21,17.1ZM270.9,236.8c-6.4,0-8.6,8.5-8.6,15.9s2.6,18.5,8.1,25c4.2-8.8,6.5-18.4,6.8-28.2-.1-3.9-.7-12.7-6.3-12.7ZM226.7,236.8h0c-5.8,0-6.6,7.1-6.6,11.4.4,9.2,2.7,18.3,6.8,26.6.5-.7.9-1.4,1.3-2.1,5.5-9.6,8.9-25.2,4.8-32.3-1.2-2.3-3.7-3.7-6.3-3.5h0Z"/>
    <rect id="elh6xbmgxa6rb" class="cls-4" x="185.8" y="397.9" width="128.4" height="70.7"/>
    <path id="ele028mxdek4v" class="cls-4" d="M299.7,468.5c-7.6,13.4-22,25.4-49.7,25.4s-42.1-12-49.6-25.4h99.3Z"/>
    <path id="elj46rk7vi1je" class="cls-1" d="M299.7,468.5c-2.2,4-5,7.7-8.3,10.9l-88.4-6.8c-.9-1.3-1.8-2.7-2.5-4.1h99.3Z"/>
    <polygon id="ellcatmqcsiqf" class="cls-1" points="318 411.3 182 423.9 182 417.7 318 405.2 318 411.3"/>
    <polygon id="el5l9681qrbit" class="cls-1" points="318 430 182 442.6 182 436.4 318 423.8 318 430"/>
    <polygon id="el3iv7krxhhix" class="cls-1" points="318 448.6 182 461.2 182 455 318 442.5 318 448.6"/>
    <g id="elfu75xqun7bm">
      <g id="el9vq9gqq7ufg" class="cls-6">
        <path id="el03ktwvdwghxc" class="cls-5" d="M133.9,206.6c4.7.8,10.8-23.5,36.9-51.6,11.6-12.5,55.6-28.1,52.5-42.5-3.2-14.4-42.5.4-62.2,23.3-31.8,36.8-31.5,70.2-27.2,70.9Z"/>
        <path id="el8idqb0v0cqn" class="cls-5" d="M365.6,211.5c8.7,0,8.7-13.5,0-13.5s-8.7,13.5,0,13.5Z"/>
        <path id="el127kas46dpa" class="cls-5" d="M323.2,312.9c4.7,3.6,27.7-17.6,38.1-42.9,8.6-21,10.1-47.6,4.3-49.1s-9.5,34.9-16.5,48.3c-8.8,16.9-31,39.8-25.9,43.7Z"/>
      </g>
    </g>
  </g>
</svg>