<?xml version="1.0" encoding="UTF-8"?>
<svg id="freepik_stories-starting-a-business-proyect" data-name="freepik stories-starting-a-business-proyect" xmlns="http://www.w3.org/2000/svg" xmlns:svgjs="http://svgjs.com/svgjs" version="1.1" viewBox="0 0 500 500">
  <defs>
    <style>
      .cls-1 {
        fill: #a9a6ff;
      }

      .cls-1, .cls-2, .cls-3, .cls-4, .cls-5, .cls-6 {
        stroke-width: 0px;
      }

      .cls-2 {
        fill: #263238;
      }

      .cls-3, .cls-4, .cls-5 {
        fill: #fff;
      }

      .cls-3, .cls-4, .cls-6 {
        isolation: isolate;
      }

      .cls-3, .cls-6 {
        opacity: .2;
      }

      .cls-4 {
        opacity: .1;
      }

      .cls-7 {
        opacity: .5;
      }

      .cls-6 {
        fill: #000;
      }
    </style>
  </defs>
  <g id="freepik--Rocket--inject-8">
    <path id="elswdnoxgngq9" class="cls-1" d="M172.6,179.5s-45.6,23-59.3,80.5c-10,42-7,121.2,11,127.5,18,6.4,20-42.7,20.2-60.1.1-17.4,16.5-38.7,31-40,0,0,2.8-92-3-107.9Z"/>
    <g id="el035ao67s8m95">
      <path id="elp7y8oydojaq" class="cls-6" d="M179.5,190.9c-10.8,4.1-19.6,12-26.8,20.8-7.6,9.7-13.9,20.4-18.7,31.8-5.3,12.2-9.1,24.9-11.5,38-2.2,13.8-3.3,27.7-3.2,41.6-.2,17-.7,34.8,6,50.8.3.6,1.3.4,1-.3-5.8-14-6.1-29.3-6-44.2.1-14.1.3-28.2,2.3-42.2,3.6-24.8,12.6-49.9,27.3-70.3,7.6-10.6,17.4-20.3,29.8-25.1.7-.3.4-1.3-.3-1h0Z"/>
    </g>
    <path id="el1eb4ox3h6qk" class="cls-1" d="M328.7,179.5s45.6,23,59.3,80.5c10,42,7,121.2-11,127.5-18,6.4-20-42.7-20.2-60.1-.1-17.4-16.5-38.7-31-40,0,0-2.8-92,3-107.9Z"/>
    <g id="elr0i5albhtxj">
      <path id="elkzgaowyjc2q" class="cls-6" d="M321.6,191.9c10.8,4.1,19.7,12.2,26.8,21.1,7.5,9.6,13.6,20.2,18.2,31.5,5.2,12.1,9,24.8,11.3,37.8,2.4,13.7,2.9,27.6,3,41.4.2,16.7.6,34.1-5.9,49.9-.3.6.8.9,1,.3,5.8-14.2,6.1-29.7,6-44.8-.1-14.3-.4-28.6-2.4-42.7-2-13.5-5.6-26.6-10.7-39.2-4.5-11.4-10.4-22.1-17.5-32-7.6-10.3-17.3-19.6-29.4-24.2-.7-.3-.9.8-.3,1h0Z"/>
    </g>
    <path id="elxooemvzua8i" class="cls-1" d="M313.1,354.3h-125.9s-23-88.6-14-187.9c2.4-26.3,9.1-52.1,19.8-76.3.1-.4.3-.7.5-1.1,2.6-6,5.4-11.6,8.3-17,11.2-21.2,25.1-40.8,41.5-58.3,3.6-4.1,9.9-4.6,14.1-.9.3.3.6.6.9.9,16.9,18.1,31.2,38.3,42.5,60.3,2.8,5.5,5.6,11.3,8.2,17.4l.5,1.1c10.1,23.5,16.4,48.4,18.8,73.9,9,99.4-15.1,187.9-15.1,187.9Z"/>
    <g id="elqscabhibyn9">
      <g id="elgubyk1mbar7" class="cls-7">
        <path id="el90xldluqir9" class="cls-5" d="M313.1,354.3h-125.9s-23-88.6-14-187.9c2.4-26.3,9.1-52.1,19.8-76.3.1-.4.3-.7.5-1.1,2.6-6,5.4-11.6,8.3-17,11.2-21.2,25.1-40.8,41.5-58.3,3.6-4.1,9.9-4.6,14.1-.9.3.3.6.6.9.9,16.9,18.1,31.2,38.3,42.5,60.3,2.8,5.5,5.6,11.3,8.2,17.4l.5,1.1c10.1,23.5,16.4,48.4,18.8,73.9,9,99.4-15.1,187.9-15.1,187.9Z"/>
      </g>
    </g>
    <rect id="ellefk1j75v7i" class="cls-1" x="204.7" y="341.7" width="94.4" height="1.4"/>
    <path id="el1alh2p1lpar" class="cls-2" d="M315.9,388h-127.3c-9.1-13.1.5-33.7.5-33.7h124.1s9.5,16.9,2.6,33.7Z"/>
    <path id="el42y8b7z165n" class="cls-2" d="M283.8,399.9h-63.6c-4.5-6.5.3-16.9.3-16.9h62.1s4.8,8.4,1.3,16.9Z"/>
    <path id="elyr2zbjkzbl" class="cls-1" d="M283.8,399.9h-63.5c-12.8,6.8-44.8,23.1-40.3,50.7h145.7c4.5-27.6-29.1-43.9-42-50.7Z"/>
    <rect id="elbcj0a0zc13" class="cls-2" x="174.6" y="444.7" width="155.6" height="12"/>
    <path id="ela7p7peoq967" class="cls-1" d="M300.7,74.1c-11.5,8.2-29,17.4-50,17.4-18.2-.1-35.7-7.1-49-19.5,1.2-2.3,2.4-4.5,3.6-6.6l.6-1c10.4-18.3,22.9-35.3,37.3-50.6,3.6-4.1,9.9-4.6,14.1-.9.3.3.6.6.9.9,14.4,15.4,26.9,32.4,37.3,50.8l.6,1c1.6,2.8,3.1,5.6,4.6,8.5Z"/>
    <g id="elcsabgse0068">
      <path id="elupz5ojc2rhd" class="cls-6" d="M296.1,65.6c-3.7,2.6-7.6,5-11.7,6.9-14.4,7-30.6,9.3-46.4,6.7-11.8-2-23-6.7-32.7-13.8l.6-1c4,2.9,8.2,5.4,12.6,7.4,14.4,6.8,30.5,8.9,46.1,6,11.1-2.1,21.7-6.6,30.9-13.3l.6,1Z"/>
    </g>
    <path id="elohd225rzp5r" class="cls-1" d="M311,182.3c-5.8-58.3-10.3-81.6-10.8-84.1,2.2-1.2,4.2-2.4,6-3.6,1.1-.7,2.1-1.4,3.1-2.1l-.5-1.1c-1.1.7-2.2,1.5-3.3,2.2-12,7.6-31.2,16.6-54.4,16.6-18.3,0-36.1-5.6-51.1-16.1-2.5-1.7-4.7-3.4-6.6-5.1-.2.4-.3.7-.5,1.1,1.9,1.6,4,3.2,6.4,4.9,1.5,1,3.2,2.1,5,3.2-.6,3.2-5.1,26.8-10.8,83.9-4.5,44.7-.4,89.1,3.8,118.5,2.5,18.1,5.9,36,10.2,53.7,0,.2.3.4.5.4h.1c.3,0,.5-.4.4-.7-4.3-17.7-7.7-35.5-10.2-53.6-4.2-29.3-8.2-73.7-3.8-118.2,5.5-55.4,9.8-79.1,10.7-83.5,13.9,8.2,29.8,12.6,45.9,12.6,16.8-.2,33.3-4.6,48-12.7.7,3.8,5.1,27.4,10.7,83.7,4.4,44.6.4,88.9-3.8,118.2-2.5,18-5.9,35.9-10.2,53.6,0,.3.1.6.4.7h.1c.2,0,.5-.2.5-.4,4.3-17.7,7.7-35.6,10.2-53.7,4.2-29.5,8.3-73.9,3.8-118.6Z"/>
    <path id="elx5tm9oip2k" class="cls-1" d="M251.2,244.1c-23,0-41.7-18.7-41.7-41.7,0-23,18.7-41.7,41.7-41.7,23,0,41.7,18.7,41.7,41.7h0c0,23-18.7,41.7-41.7,41.7ZM251.2,161.8c-22.4,0-40.6,18.2-40.6,40.6,0,22.4,18.2,40.6,40.6,40.6,22.4,0,40.6-18.2,40.6-40.6h0c0-22.4-18.2-40.6-40.6-40.6Z"/>
    <path id="elv33ijauorw" class="cls-1" d="M282.7,202.4c0,17.4-14.1,31.6-31.6,31.6h-.7c-5.3-.1-10.6-1.6-15.2-4.3-3.6-2.1-6.7-4.8-9.2-8.1-4.2-5.5-6.5-12.2-6.5-19.2,0-1.2,0-2.5.2-3.7,1.7-14.5,13.2-26,27.7-27.7,1.2-.1,2.5-.2,3.7-.2,17.1,0,31.1,13.7,31.6,30.8,0,.2,0,.5,0,.7Z"/>
    <g id="elu1wt8kwpl5p">
      <path id="el7wf39dkv4u" class="cls-4" d="M270.3,177.4l-44.3,44.3c-4.2-5.5-6.5-12.2-6.5-19.2,0-1.2,0-2.5.2-3.7l27.7-27.7c1.2-.1,2.5-.2,3.7-.2,6.9,0,13.6,2.3,19.1,6.5Z"/>
    </g>
    <g id="elyyus3asu6tr">
      <path id="el2z5cey76yfd" class="cls-4" d="M282.7,201.7l-32.3,32.3c-5.3-.1-10.6-1.6-15.2-4.3l43.2-43.2c2.7,4.6,4.2,9.8,4.3,15.2Z"/>
    </g>
    <rect id="ele8owx3mmovd" class="cls-1" x="185.3" y="456.7" width="130.7" height="22.6"/>
    <g id="ela10lhrm4hds">
      <rect id="ellp94lbljpkt" class="cls-3" x="185.3" y="456.7" width="130.7" height="22.6"/>
    </g>
  </g>
</svg>