<svg width="850" height="308" viewBox="0 0 850 308" fill="none" xmlns="http://www.w3.org/2000/svg">
<g clip-path="url(#clip0_1212_40)">
<rect width="308" height="308" rx="76" fill="#2558CF"/>
<rect x="154" y="28.2964" width="178.191" height="178.191" rx="53" transform="rotate(45 154 28.2964)" fill="white"/>
<path d="M153.023 111.855C153.371 109.594 156.629 109.594 156.977 111.855L162.148 145.489C162.28 146.346 162.949 147.02 163.805 147.159L196.846 152.526C199.085 152.89 199.085 156.11 196.846 156.474L163.805 161.841C162.949 161.98 162.28 162.654 162.148 163.511L156.977 197.145C156.629 199.406 153.371 199.406 153.023 197.145L147.852 163.511C147.72 162.654 147.051 161.98 146.195 161.841L113.154 156.474C110.915 156.11 110.915 152.89 113.154 152.526L146.195 147.159C147.051 147.02 147.72 146.346 147.852 145.489L153.023 111.855Z" fill="#2558CF"/>
<path d="M392.608 203.28C386.123 203.28 380.064 202.128 374.432 199.824C368.8 197.435 363.851 194.149 359.584 189.968C355.317 185.787 351.989 180.923 349.6 175.376C347.296 169.744 346.144 163.685 346.144 157.2C346.144 150.8 347.296 144.827 349.6 139.28C351.989 133.733 355.275 128.912 359.456 124.816C363.723 120.635 368.672 117.392 374.304 115.088C379.936 112.784 385.995 111.632 392.48 111.632C397.003 111.632 401.397 112.272 405.664 113.552C410.016 114.832 413.941 116.624 417.44 118.928C420.939 121.232 423.797 123.877 426.016 126.864L417.056 136.208C414.496 133.733 411.851 131.685 409.12 130.064C406.475 128.443 403.744 127.205 400.928 126.352C398.112 125.499 395.296 125.072 392.48 125.072C387.872 125.072 383.605 125.883 379.68 127.504C375.84 129.125 372.427 131.387 369.44 134.288C366.539 137.189 364.277 140.603 362.656 144.528C361.035 148.368 360.224 152.592 360.224 157.2C360.224 161.637 361.077 165.861 362.784 169.872C364.491 173.797 366.837 177.253 369.824 180.24C372.896 183.227 376.395 185.573 380.32 187.28C384.331 188.987 388.555 189.84 392.992 189.84C396.32 189.84 399.477 189.371 402.464 188.432C405.451 187.408 408.096 186 410.4 184.208C412.704 182.416 414.496 180.368 415.776 178.064C417.056 175.675 417.696 173.157 417.696 170.512V167.952L419.616 169.744H392.224V156.048H431.904C432.075 156.987 432.203 157.925 432.288 158.864C432.373 159.717 432.416 160.571 432.416 161.424C432.501 162.192 432.544 162.96 432.544 163.728C432.544 169.616 431.52 174.992 429.472 179.856C427.424 184.635 424.565 188.773 420.896 192.272C417.312 195.771 413.088 198.501 408.224 200.464C403.445 202.341 398.24 203.28 392.608 203.28ZM458.48 231.44L472.048 200.08L472.176 210.576L438.64 134.8H454L474.992 184.208C475.419 185.061 475.931 186.384 476.528 188.176C477.125 189.883 477.637 191.589 478.064 193.296L474.736 194.064C475.419 192.272 476.059 190.48 476.656 188.688C477.339 186.896 477.979 185.104 478.576 183.312L496.112 134.8H511.728L484.08 202L472.688 231.44H458.48ZM521.591 230.16V134.8H534.903V150.16L532.855 149.008C533.367 146.448 534.818 144.016 537.207 141.712C539.596 139.323 542.498 137.403 545.911 135.952C549.41 134.416 552.994 133.648 556.663 133.648C562.722 133.648 568.098 135.141 572.791 138.128C577.484 141.115 581.196 145.211 583.927 150.416C586.658 155.621 588.023 161.595 588.023 168.336C588.023 174.992 586.658 180.965 583.927 186.256C581.282 191.461 577.612 195.6 572.919 198.672C568.226 201.659 562.935 203.152 557.047 203.152C553.122 203.152 549.324 202.384 545.655 200.848C541.986 199.227 538.871 197.179 536.311 194.704C533.751 192.229 532.172 189.669 531.575 187.024L534.903 185.232V230.16H521.591ZM554.871 190.992C558.796 190.992 562.295 190.011 565.367 188.048C568.439 186.085 570.871 183.397 572.663 179.984C574.455 176.571 575.351 172.688 575.351 168.336C575.351 163.984 574.455 160.144 572.663 156.816C570.956 153.403 568.567 150.715 565.495 148.752C562.423 146.789 558.882 145.808 554.871 145.808C550.86 145.808 547.319 146.789 544.247 148.752C541.175 150.629 538.743 153.275 536.951 156.688C535.159 160.101 534.263 163.984 534.263 168.336C534.263 172.688 535.159 176.571 536.951 179.984C538.743 183.397 541.175 186.085 544.247 188.048C547.319 190.011 550.86 190.992 554.871 190.992ZM624.741 203.28C619.109 203.28 614.032 202.299 609.509 200.336C604.986 198.373 601.232 195.472 598.245 191.632L607.205 183.952C609.765 186.939 612.538 189.115 615.525 190.48C618.597 191.76 622.053 192.4 625.893 192.4C627.429 192.4 628.837 192.229 630.117 191.888C631.482 191.461 632.634 190.864 633.573 190.096C634.597 189.328 635.365 188.432 635.877 187.408C636.389 186.299 636.645 185.104 636.645 183.824C636.645 181.605 635.834 179.813 634.213 178.448C633.36 177.851 631.994 177.211 630.117 176.528C628.325 175.76 625.978 174.992 623.077 174.224C618.128 172.944 614.074 171.493 610.917 169.872C607.76 168.251 605.328 166.416 603.621 164.368C602.341 162.747 601.402 160.997 600.805 159.12C600.208 157.157 599.909 155.024 599.909 152.72C599.909 149.904 600.506 147.344 601.701 145.04C602.981 142.651 604.688 140.603 606.821 138.896C609.04 137.104 611.6 135.739 614.501 134.8C617.488 133.861 620.645 133.392 623.973 133.392C627.13 133.392 630.245 133.819 633.317 134.672C636.474 135.525 639.376 136.763 642.021 138.384C644.666 140.005 646.885 141.925 648.677 144.144L641.125 152.464C639.504 150.843 637.712 149.435 635.749 148.24C633.872 146.96 631.952 145.979 629.989 145.296C628.026 144.613 626.234 144.272 624.613 144.272C622.821 144.272 621.2 144.443 619.749 144.784C618.298 145.125 617.061 145.637 616.037 146.32C615.098 147.003 614.373 147.856 613.861 148.88C613.349 149.904 613.093 151.056 613.093 152.336C613.178 153.445 613.434 154.512 613.861 155.536C614.373 156.475 615.056 157.285 615.909 157.968C616.848 158.651 618.256 159.376 620.133 160.144C622.01 160.912 624.4 161.637 627.301 162.32C631.568 163.429 635.066 164.667 637.797 166.032C640.613 167.312 642.832 168.805 644.453 170.512C646.16 172.133 647.354 174.011 648.037 176.144C648.72 178.277 649.061 180.667 649.061 183.312C649.061 187.152 647.952 190.608 645.733 193.68C643.6 196.667 640.698 199.013 637.029 200.72C633.36 202.427 629.264 203.28 624.741 203.28ZM687.143 203.28C682.364 203.28 678.183 202.171 674.599 199.952C671.1 197.733 668.37 194.619 666.407 190.608C664.53 186.597 663.591 181.819 663.591 176.272V134.8H676.775V172.688C676.775 176.613 677.372 180.027 678.567 182.928C679.847 185.744 681.639 187.92 683.943 189.456C686.332 190.992 689.191 191.76 692.519 191.76C694.994 191.76 697.255 191.376 699.303 190.608C701.351 189.755 703.1 188.603 704.551 187.152C706.087 185.701 707.282 183.952 708.135 181.904C708.988 179.856 709.415 177.637 709.415 175.248V134.8H722.599V202H709.415V187.92L711.719 186.384C710.695 189.541 708.946 192.4 706.471 194.96C704.082 197.52 701.223 199.568 697.895 201.104C694.567 202.555 690.983 203.28 687.143 203.28ZM740.835 202V134.8H754.147V149.136L751.715 150.672C752.398 148.453 753.464 146.32 754.915 144.272C756.451 142.224 758.286 140.432 760.419 138.896C762.638 137.275 764.984 135.995 767.459 135.056C770.019 134.117 772.622 133.648 775.267 133.648C779.107 133.648 782.478 134.288 785.379 135.568C788.28 136.848 790.67 138.768 792.547 141.328C794.424 143.888 795.79 147.088 796.643 150.928L794.595 150.416L795.491 148.24C796.43 146.277 797.71 144.443 799.331 142.736C801.038 140.944 802.958 139.365 805.091 138C807.224 136.635 809.486 135.568 811.875 134.8C814.264 134.032 816.611 133.648 818.915 133.648C823.95 133.648 828.088 134.672 831.331 136.72C834.659 138.768 837.134 141.883 838.755 146.064C840.462 150.245 841.315 155.451 841.315 161.68V202H828.003V162.448C828.003 158.608 827.491 155.493 826.467 153.104C825.528 150.629 824.078 148.795 822.115 147.6C820.152 146.405 817.635 145.808 814.563 145.808C812.174 145.808 809.912 146.235 807.779 147.088C805.731 147.856 803.939 148.965 802.403 150.416C800.867 151.867 799.672 153.573 798.819 155.536C797.966 157.413 797.539 159.504 797.539 161.808V202H784.227V162.192C784.227 158.693 783.715 155.749 782.691 153.36C781.667 150.885 780.174 149.008 778.211 147.728C776.248 146.448 773.859 145.808 771.043 145.808C768.654 145.808 766.435 146.235 764.387 147.088C762.339 147.856 760.547 148.965 759.011 150.416C757.475 151.781 756.28 153.445 755.427 155.408C754.574 157.285 754.147 159.333 754.147 161.552V202H740.835Z" fill="#2558CF"/>
</g>
<defs>
<clipPath id="clip0_1212_40">
<rect width="850" height="308" fill="white"/>
</clipPath>
</defs>
</svg>
